# xmcd
#
# Track frame offsets:
#	150
#	15617
#	38462
#	54045
#	83622
#	97935
#	116625
#	129450
#	141657
#
# Disc length: 2047 seconds
#
# Revision: 1
# Processed by: cddbd v1.4PL0 Copyright (c) Steve Scherf et al.
# Submitted via: audiograbber 1.80
#
DISCID=6607fd09
DTITLE=Lee Clayton - Lee Clayton
DYEAR=1900
DGENRE=
TTITLE0=Carnival Balloon
TTITLE1=Bottles of Booze
TTITLE2=Henry McCarty
TTITLE3=New York City Suite 409
TTITLE4=Mama, Spend The Night With Me
TTITLE5=Red Dancing Dress
TTITLE6=Danger
TTITLE7=Lonesome Whiskey
TTITLE8=Ladies Love Outlaws
EXTD=
EXTT0=
EXTT1=
EXTT2=
EXTT3=
EXTT4=
EXTT5=
EXTT6=
EXTT7=
EXTT8=
PLAYORDER=
